<?xml version="1.0" encoding="UTF-8" standalone="no"?>
<!-- Created with Inkscape (http://www.inkscape.org/) -->

<svg
   width="600"
   height="400"
   viewBox="0 0 158.75 105.83333"
   version="1.1"
   id="svg5"
   xml:space="preserve"
   inkscape:version="1.2.2 (732a01da63, 2022-12-09)"
   sodipodi:docname="river_svg1.svg"
   xmlns:inkscape="http://www.inkscape.org/namespaces/inkscape"
   xmlns:sodipodi="http://sodipodi.sourceforge.net/DTD/sodipodi-0.dtd"
   xmlns="http://www.w3.org/2000/svg"
   xmlns:svg="http://www.w3.org/2000/svg"><sodipodi:namedview
     id="namedview7"
     pagecolor="#ffffff"
     bordercolor="#000000"
     borderopacity="0.25"
     inkscape:showpageshadow="2"
     inkscape:pageopacity="0.0"
     inkscape:pagecheckerboard="0"
     inkscape:deskcolor="#d1d1d1"
     inkscape:document-units="mm"
     showgrid="false"
     inkscape:zoom="1.4770342"
     inkscape:cx="291.12392"
     inkscape:cy="204.46378"
     inkscape:window-width="2560"
     inkscape:window-height="1009"
     inkscape:window-x="-8"
     inkscape:window-y="-8"
     inkscape:window-maximized="1"
     inkscape:current-layer="layer1" /><defs
     id="defs2" /><g
     inkscape:label="Ebene 1"
     inkscape:groupmode="layer"
     id="layer1"><path
       style="fill:none;fill-opacity:1;stroke:#03cad6;stroke-width:6.61458;stroke-linecap:round;stroke-dasharray:none;stroke-opacity:1"
       d="M 4.4782869,57.142943 C 26.153196,42.812424 28.123642,50.515078 39.94632,53.022917 51.768999,55.53076 65.741253,40.841977 75.414353,41.916768 c 9.673101,1.074787 -8.59831,29.198429 12.00181,22.749697 20.600117,-6.448734 13.972257,-27.227986 33.676717,-23.645355 19.70446,3.582627 -1.07479,20.420989 10.92702,24.18275 12.00181,3.761761 22.39144,-7.881786 22.39144,-7.881786"
       id="path236"
       sodipodi:nodetypes="csssssc"
       inkscape:label="river" /><text
       xml:space="preserve"
       style="font-style:normal;font-variant:normal;font-weight:bold;font-stretch:normal;font-size:11.2889px;line-height:0.9;font-family:Arial;-inkscape-font-specification:'Arial Bold';text-align:center;text-anchor:middle;fill:#03cad6;fill-opacity:1;stroke:none;stroke-width:6.61458;stroke-linecap:round;stroke-dasharray:none;stroke-opacity:1"
       x="34.076458"
       y="63.607494"
       id="text3933"
       transform="rotate(-26.3259)"
       inkscape:label="river_text"><tspan
         sodipodi:role="line"
         id="tspan3931"
         style="font-style:normal;font-variant:normal;font-weight:bold;font-stretch:normal;font-family:Arial;-inkscape-font-specification:'Arial Bold';fill:#03cad6;fill-opacity:1;stroke:none;stroke-width:6.61458"
         x="34.076458"
         y="63.607494">River</tspan></text><path
       style="fill:#f5c211;stroke:none;stroke-width:1"
       d="m 134.75597,6.6331205 c -0.0783,0 -0.21414,-0.02543 -0.27976,0.02551 -0.0759,0.05891 -0.0823,0.21449 -0.12771,0.297148 -0.11158,0.203323 -0.35189,0.340088 -0.58532,0.315112 -0.81813,-0.08753 -0.93838,-1.439771 -0.27302,-1.806654 0.23596,-0.130106 0.57865,-0.09503 0.76674,0.102723 0.0693,0.07291 0.0987,0.238598 0.18682,0.281772 0.0717,0.0351 0.18473,0.01497 0.26261,0.01497 -0.15266,-0.659926 -0.91485,-0.9785409 -1.48918,-0.555648 -0.31725,0.233599 -0.43259,0.649938 -0.43259,1.027224 0,0.329381 0.0799,0.670337 0.31305,0.916091 0.33485,0.352995 1.06063,0.391714 1.402,0.02275 0.1613,-0.174325 0.21271,-0.415935 0.25636,-0.641006 m 0.3723,-1.464367 v 2.28342 h 0.27302 v -2.28342 h -0.27302 m -9.2826,13.0800285 h 0.17374 V 16.23837 c 0,-0.242935 -0.0768,-0.640797 0.0149,-0.866111 0.0399,-0.09786 0.1725,-0.150606 0.25805,-0.200867 0.21413,-0.125786 0.43117,-0.246534 0.64532,-0.372296 0.64182,-0.376938 1.2904,-0.742906 1.93594,-1.113441 0.27992,-0.160683 0.60762,-0.436729 0.91833,-0.522481 0.15672,-0.04326 0.39116,0.155967 0.52122,0.231444 0.4378,0.254105 0.87659,0.506671 1.31545,0.75889 0.15572,0.0895 0.55743,0.432113 0.62049,0.124099 -0.52967,-0.281928 -1.04245,-0.59972 -1.56364,-0.897235 -0.20335,-0.116082 -0.55924,-0.24316 -0.70481,-0.42762 -0.0601,-0.0761 -0.0398,-0.197839 -0.0398,-0.288431 V 11.969367 9.4625685 c 0,-0.220698 -0.0944,-0.732631 0.0398,-0.913045 0.1445,-0.194265 0.52062,-0.326232 0.72963,-0.445069 0.56403,-0.320672 1.13439,-0.63628 1.68774,-0.974946 l -0.0745,-0.173738 c -0.60994,0.262828 -1.18574,0.672764 -1.7622,1.00324 -0.18163,0.104144 -0.50809,0.386767 -0.71978,0.383268 -0.25745,-0.0042 -0.64675,-0.345244 -0.86869,-0.4719 -0.72143,-0.411809 -1.43716,-0.833666 -2.15932,-1.244238 -0.23259,-0.13223 -0.60017,-0.455964 -0.86869,-0.474353 -0.15562,-0.01066 -0.366,0.168822 -0.4964,0.243584 -0.41387,0.237272 -0.83111,0.470196 -1.24099,0.714296 -0.54129,0.32237 -1.09682,0.620777 -1.6381,0.943161 -0.16902,0.100645 -0.51193,0.214121 -0.61981,0.380439 -0.0513,0.07915 -0.0255,0.219531 -0.0255,0.309528 v 0.744593 2.5812575 0.694954 c 0,0.08602 -0.0222,0.21206 0.0255,0.288431 0.14051,0.224817 0.63932,0.399201 0.868,0.530622 0.72945,0.419231 1.45869,0.839455 2.18414,1.265536 0.21482,0.126159 0.69079,0.285378 0.81837,0.501956 0.10667,0.181085 0.0255,0.605578 0.0255,0.813766 v 2.084863 m 0.0993,-3.077655 c -0.91912,-0.484109 -1.80276,-1.042406 -2.70535,-1.556672 -0.26547,-0.151251 -0.52928,-0.305358 -0.79423,-0.457454 -0.0966,-0.05547 -0.2596,-0.111813 -0.32197,-0.207965 -0.075,-0.115635 -0.0255,-0.374108 -0.0255,-0.508085 V 11.125496 9.3384725 c 0,-0.211962 -0.0691,-0.568995 0.015,-0.764201 0.0405,-0.09402 0.17519,-0.1414 0.25805,-0.189475 0.20654,-0.11988 0.41336,-0.239164 0.62049,-0.35805 0.69571,-0.399351 1.38785,-0.804906 2.08486,-1.202045 0.22589,-0.1287 0.58324,-0.443892 0.84388,-0.46355 0.14509,-0.01094 0.3501,0.162351 0.47157,0.232858 0.38012,0.220609 0.76065,0.440603 1.14171,0.659601 0.51325,0.294982 1.02421,0.593962 1.53883,0.886537 0.17676,0.100496 0.53034,0.224421 0.64462,0.394411 0.0519,0.07717 0.0255,0.219035 0.0255,0.307518 v 0.719774 2.4571585 c 0,0.232462 0.0954,0.735212 -0.0255,0.934986 -0.0616,0.101687 -0.22251,0.160162 -0.32197,0.217173 -0.24857,0.142515 -0.4955,0.287711 -0.74459,0.429333 -0.89282,0.507614 -1.86994,0.974028 -2.70536,1.570621 m -0.0496,-7.9175115 c 0.7618,0.502476 1.58964,0.931064 2.3827,1.382933 0.18325,0.104417 0.67455,0.529058 0.79424,0.230352 -0.80957,-0.426428 -1.58733,-0.919597 -2.3827,-1.372062 -0.17242,-0.09809 -0.69104,-0.53406 -0.79424,-0.241223 m -3.15211,1.712565 v 3.5740485 h 0.17374 V 8.9661755 h -0.17374 m 3.15211,5.2617945 0.0745,0.173738 1.34027,-0.758889 1.76221,-1.028135 v -0.02482 l -0.0745,-0.124099 -0.94316,0.524939 -2.15932,1.237266 m 6.97436,-0.02482 v 2.28342 h 0.27302 v -1.836664 h 0.0248 l 0.77706,1.240989 0.37274,0.555889 0.33939,0.03978 v -2.28342 h -0.27302 v 1.836664 c -0.31427,-0.379594 -0.56366,-0.84705 -0.82382,-1.265809 -0.20134,-0.324072 -0.28597,-0.570855 -0.69019,-0.570855 m 2.30824,0 v 2.28342 h 0.29784 v -1.042431 h 1.16653 v 1.042431 h 0.29784 v -2.28342 h -0.29784 v 0.992791 h -1.16653 v -0.99278 h -0.29784 m -1.514,2.804636 v 1.935943 c 0,0.197045 0.0756,0.592399 -0.0255,0.764127 -0.0553,0.09389 -0.20618,0.15016 -0.29714,0.203572 -0.23875,0.140232 -0.47908,0.278379 -0.71978,0.415235 -0.63109,0.358795 -1.2565,0.727518 -1.8863,1.088596 -0.28948,0.165945 -0.69545,0.319257 -0.93526,0.551173 -0.0793,0.07669 -0.0575,0.202579 -0.0575,0.303149 V 23.039 25.620258 c 0,0.248074 -0.10007,0.772615 0.0255,0.987579 0.13146,0.225041 0.6428,0.405382 0.86799,0.533403 0.73102,0.415607 1.45486,0.843922 2.18414,1.262557 l 0.64531,0.372297 c 0.0864,0.04932 0.1933,0.136608 0.29784,0.130204 0.2209,-0.01358 0.50657,-0.262246 0.69496,-0.371601 0.56162,-0.325934 1.12985,-0.641269 1.68774,-0.973507 0.3859,-0.229831 0.77922,-0.447377 1.16653,-0.67485 0.11753,-0.06902 0.37233,-0.153709 0.4318,-0.282698 0.10952,-0.237674 0.0149,-0.721189 0.0149,-0.983384 v -2.40752 -0.794233 c 0,-0.108463 -0.025,-0.249439 0.0575,-0.334348 0.22241,-0.228813 0.63325,-0.379866 0.91043,-0.538068 0.63874,-0.364602 1.27309,-0.736924 1.91113,-1.102718 l 0.67013,-0.386469 c 0.0788,-0.045 0.19198,-0.140679 0.28732,-0.133952 0.17274,0.01221 0.40704,0.219381 0.55656,0.304439 0.47361,0.269419 0.94131,0.549311 1.41472,0.819053 0.33217,0.189251 0.66081,0.384583 0.99279,0.574107 0.12594,0.07188 0.34676,0.150904 0.42125,0.281332 0.11121,0.194711 0.0255,0.641566 0.0255,0.864101 v 2.233781 h 0.17374 v -3.028014 c 0.26852,0.177684 0.34052,0.145444 0.62049,0.02482 v 3.003194 h 0.19856 v -2.2586 c 0,-0.212582 -0.088,-0.67773 0.0255,-0.859286 0.091,-0.145668 0.37533,-0.240603 0.52052,-0.327075 0.46885,-0.279223 0.94539,-0.593293 1.43955,-0.824042 l -0.0745,-0.173739 c -0.21941,0.06942 -0.42219,0.221815 -0.6205,0.336954 -0.37949,0.2203 -0.76122,0.437151 -1.14171,0.655838 -0.16319,0.09379 -0.47711,0.365968 -0.67013,0.345268 -0.27922,-0.02996 -0.65078,-0.354675 -0.89351,-0.494187 -0.69548,-0.399698 -1.38899,-0.802846 -2.08487,-1.201799 -0.20697,-0.118663 -0.41553,-0.234795 -0.62049,-0.356859 -0.0845,-0.05033 -0.19493,-0.139884 -0.29784,-0.137402 -0.10347,0.0025 -0.21121,0.09005 -0.29784,0.139388 l -0.67013,0.386419 c -0.66358,0.37875 -1.32312,0.764698 -1.98558,1.145433 -0.27041,0.155422 -0.61345,0.449263 -0.91834,0.516053 -0.13454,0.02949 -0.31084,-0.12323 -0.42193,-0.186421 -0.36542,-0.207891 -0.72692,-0.422781 -1.09207,-0.631192 -0.5555,-0.317073 -1.10699,-0.641021 -1.66293,-0.957275 -0.17942,-0.102059 -0.55921,-0.237128 -0.66944,-0.413497 -0.10243,-0.16386 -0.0255,-0.568969 -0.0255,-0.760007 v -1.935944 h -0.17374 m -6.75098,3.176934 h -0.29784 c -0.0467,0.534916 -0.62642,0.859558 -1.06688,0.48823 -0.51776,-0.436531 -0.39533,-1.727259 0.42157,-1.727259 0.19342,0 0.3916,0.08858 0.50538,0.246336 0.0462,0.06404 0.0646,0.175799 0.12901,0.222584 0.0645,0.04686 0.18372,0.02552 0.25912,0.02552 -0.0571,-0.698056 -0.89344,-0.952285 -1.43955,-0.596519 -0.37905,0.246933 -0.48912,0.744867 -0.47061,1.167375 0.0146,0.333999 0.15878,0.724067 0.44582,0.915726 0.63866,0.426478 1.48112,0.02112 1.51398,-0.741988 m 22.31299,-1.478291 c -0.93645,0.146263 -1.24521,1.450419 -0.59146,2.094219 0.25391,0.249786 0.6468,0.320523 0.98858,0.266688 1.37824,-0.217024 1.04739,-2.586519 -0.39712,-2.360907 m -21.91587,0.01392 v 2.283421 h 0.24819 v -2.283421 h -0.24819 m 23.55397,2.283421 h 0.29784 v -1.017612 h 1.19135 v 1.017612 h 0.27302 v -2.283421 h -0.27302 v 0.992792 h -1.19135 v -0.992792 l -0.28294,0.05753 -0.0149,0.637422 v 1.588467 m -1.56364,-2.05287 c 1.07767,-0.139958 1.27077,1.720657 0.2482,1.871661 -1.13626,0.167831 -1.33084,-1.731032 -0.2482,-1.871661 m -15.53719,0.962462 c 0.25594,0.01437 0.62198,0.33678 0.84387,0.462939 0.69734,0.396471 1.3882,0.804409 2.08487,1.202047 l 0.62049,0.358125 c 0.0829,0.04751 0.21767,0.09568 0.25805,0.189399 0.0841,0.195208 0.015,0.552241 0.015,0.764202 v 1.787025 1.315449 c 0,0.135788 0.0493,0.393741 -0.0255,0.511536 -0.0983,0.154751 -0.41328,0.263387 -0.57016,0.353433 -0.48084,0.276021 -0.95857,0.557477 -1.43955,0.833225 -0.43145,0.247355 -0.86053,0.498803 -1.29063,0.748441 -0.13311,0.07724 -0.36212,0.270858 -0.52122,0.257753 -0.25966,-0.02142 -0.61764,-0.334942 -0.84387,-0.463634 -0.69781,-0.396967 -1.3942,-0.798898 -2.08486,-1.208177 -0.20536,-0.121692 -0.41541,-0.235291 -0.6205,-0.357454 -0.0789,-0.04703 -0.19607,-0.09044 -0.23322,-0.181334 -0.0821,-0.200866 -0.015,-0.550453 -0.015,-0.766807 v -1.787024 -1.340269 c 0,-0.129881 -0.0505,-0.395279 0.0255,-0.50548 0.1008,-0.146064 0.39397,-0.243258 0.54534,-0.333404 0.46743,-0.278378 0.9467,-0.536852 1.41473,-0.814188 0.42728,-0.253212 0.86338,-0.491407 1.29063,-0.744594 0.13728,-0.08136 0.38195,-0.290416 0.54603,-0.281208 m -3.15211,2.505136 0.0745,0.173738 0.84387,-0.464601 2.25861,-1.297604 -0.0745,-0.173738 -0.91833,0.510692 -2.18414,1.251513 m 6.15531,0.09928 v 3.57405 h 0.17374 v -3.57405 h -0.17374 m 8.58764,2.964451 c -1.45913,0.227895 -1.1392,2.619555 0.3723,2.364706 1.3636,-0.229882 1.05137,-2.587066 -0.3723,-2.364706 m 0.0993,0.244773 c 1.04467,-0.102779 1.19781,1.753021 0.19856,1.874266 -1.16894,0.14182 -1.31954,-1.763992 -0.19856,-1.874266 m -14.76777,0.290366 -0.0745,0.173739 c 0.8096,0.426429 1.5872,0.919771 2.3827,1.372062 0.17252,0.09809 0.72459,0.557255 0.79424,0.216405 l -2.33307,-1.336547 z"
       id="path5086"
       inkscape:label="diclofenac" /><text
       xml:space="preserve"
       style="font-style:normal;font-variant:normal;font-weight:normal;font-stretch:normal;font-size:7.05556px;line-height:0.9;font-family:Arial;-inkscape-font-specification:Arial;text-align:center;text-anchor:middle;fill:#f5c211;fill-opacity:1;stroke:none;stroke-width:6.61458;stroke-linecap:round;stroke-dasharray:none;stroke-opacity:1"
       x="106.76237"
       y="19.704462"
       id="text5142"
       inkscape:label="analyte_text"><tspan
         sodipodi:role="line"
         id="tspan5140"
         style="font-style:normal;font-variant:normal;font-weight:normal;font-stretch:normal;font-size:7.05556px;font-family:Arial;-inkscape-font-specification:Arial;stroke-width:6.61458"
         x="106.76237"
         y="19.704462">Analyte :</tspan></text></g></svg>
